<mxfile host="app.diagrams.net" modified="2024-02-27T06:04:28.790Z" agent="Mozilla/5.0 (Windows NT 10.0; Win64; x64) AppleWebKit/537.36 (KHTML, like Gecko) Chrome/122.0.0.0 Safari/537.36" etag="nc7yNmL7Zjut39bnbGmn" version="23.1.7" type="device">
  <diagram name="Page-1" id="qV_nR0R1zn4-T_DtDAHZ">
    <mxGraphModel dx="1551" dy="925" grid="1" gridSize="10" guides="1" tooltips="1" connect="1" arrows="1" fold="1" page="1" pageScale="1" pageWidth="1654" pageHeight="1169" math="0" shadow="0">
      <root>
        <mxCell id="0" />
        <mxCell id="1" parent="0" />
        <mxCell id="1gGBeR-0KqfshUf7wOd3-1" value="S7-1500&lt;br&gt;10.2.1.51" style="verticalAlign=top;verticalLabelPosition=bottom;labelPosition=center;align=center;html=1;outlineConnect=0;fillColor=#f5f5f5;strokeColor=#666666;gradientDirection=north;strokeWidth=2;shape=mxgraph.networks.ups_enterprise;gradientColor=#b3b3b3;shadow=0;" parent="1" vertex="1">
          <mxGeometry x="730" y="430" width="80" height="80" as="geometry" />
        </mxCell>
        <mxCell id="1gGBeR-0KqfshUf7wOd3-2" value="TP1200&lt;br&gt;10.2.1.52" style="verticalAlign=top;verticalLabelPosition=bottom;labelPosition=center;align=center;html=1;outlineConnect=0;fillColor=#f5f5f5;strokeColor=#666666;gradientDirection=north;strokeWidth=2;shape=mxgraph.networks.tablet;gradientColor=#b3b3b3;rounded=1;" parent="1" vertex="1">
          <mxGeometry x="935" y="435" width="100" height="70" as="geometry" />
        </mxCell>
        <mxCell id="1gGBeR-0KqfshUf7wOd3-3" value="Stacker&lt;br&gt;10.2.1.55" style="verticalAlign=top;verticalLabelPosition=bottom;labelPosition=center;align=center;html=1;outlineConnect=0;fillColor=#f5f5f5;strokeColor=#666666;gradientColor=#b3b3b3;gradientDirection=north;strokeWidth=2;shape=mxgraph.networks.desktop_pc;shadow=0;fontFamily=Helvetica;fontSize=12;rounded=1;" parent="1" vertex="1">
          <mxGeometry x="1130" y="430" width="30" height="80" as="geometry" />
        </mxCell>
        <mxCell id="1gGBeR-0KqfshUf7wOd3-4" value="Belt Control&lt;br&gt;10.2.1.56" style="verticalAlign=top;verticalLabelPosition=bottom;labelPosition=center;align=center;html=1;outlineConnect=0;fillColor=#F50A0A;strokeColor=#666666;gradientColor=#B32104;gradientDirection=north;strokeWidth=2;shape=mxgraph.networks.desktop_pc;shadow=0;fontFamily=Helvetica;fontSize=12;rounded=1;" parent="1" vertex="1">
          <mxGeometry x="1290" y="429.9999999999999" width="30" height="80" as="geometry" />
        </mxCell>
        <mxCell id="1gGBeR-0KqfshUf7wOd3-5" value="S7-1500&lt;br&gt;10.2.2.51" style="verticalAlign=top;verticalLabelPosition=bottom;labelPosition=center;align=center;html=1;outlineConnect=0;fillColor=#f5f5f5;strokeColor=#666666;gradientDirection=north;strokeWidth=2;shape=mxgraph.networks.ups_enterprise;gradientColor=#b3b3b3;shadow=0;" parent="1" vertex="1">
          <mxGeometry x="730" y="660" width="80" height="80" as="geometry" />
        </mxCell>
        <mxCell id="1gGBeR-0KqfshUf7wOd3-7" value="Stacker&lt;br&gt;10.2.2.55" style="verticalAlign=top;verticalLabelPosition=bottom;labelPosition=center;align=center;html=1;outlineConnect=0;fillColor=#f5f5f5;strokeColor=#666666;gradientColor=#b3b3b3;gradientDirection=north;strokeWidth=2;shape=mxgraph.networks.desktop_pc;shadow=0;fontFamily=Helvetica;fontSize=12;rounded=1;" parent="1" vertex="1">
          <mxGeometry x="1130" y="659.9999999999999" width="30" height="80" as="geometry" />
        </mxCell>
        <mxCell id="1gGBeR-0KqfshUf7wOd3-8" value="Belt Control&lt;br&gt;10.2.2.56" style="verticalAlign=top;verticalLabelPosition=bottom;labelPosition=center;align=center;html=1;outlineConnect=0;fillColor=#F50A0A;strokeColor=#666666;gradientColor=#B32104;gradientDirection=north;strokeWidth=2;shape=mxgraph.networks.desktop_pc;shadow=0;fontFamily=Helvetica;fontSize=12;rounded=1;" parent="1" vertex="1">
          <mxGeometry x="1290" y="660" width="30" height="80" as="geometry" />
        </mxCell>
        <mxCell id="1gGBeR-0KqfshUf7wOd3-9" value="S7-1500&lt;br&gt;10.2.3.51" style="verticalAlign=top;verticalLabelPosition=bottom;labelPosition=center;align=center;html=1;outlineConnect=0;fillColor=#f5f5f5;strokeColor=#666666;gradientDirection=north;strokeWidth=2;shape=mxgraph.networks.ups_enterprise;gradientColor=#b3b3b3;shadow=0;" parent="1" vertex="1">
          <mxGeometry x="730" y="880" width="80" height="80" as="geometry" />
        </mxCell>
        <mxCell id="1gGBeR-0KqfshUf7wOd3-10" value="Stacker&lt;br&gt;10.2.3.55" style="verticalAlign=top;verticalLabelPosition=bottom;labelPosition=center;align=center;html=1;outlineConnect=0;fillColor=#f5f5f5;strokeColor=#666666;gradientColor=#b3b3b3;gradientDirection=north;strokeWidth=2;shape=mxgraph.networks.desktop_pc;shadow=0;fontFamily=Helvetica;fontSize=12;rounded=1;" parent="1" vertex="1">
          <mxGeometry x="1130" y="880" width="30" height="80" as="geometry" />
        </mxCell>
        <mxCell id="1gGBeR-0KqfshUf7wOd3-11" value="Belt Control&lt;br&gt;10.2.3.56" style="verticalAlign=top;verticalLabelPosition=bottom;labelPosition=center;align=center;html=1;outlineConnect=0;fillColor=#F50A0A;strokeColor=#666666;gradientColor=#B32104;gradientDirection=north;strokeWidth=2;shape=mxgraph.networks.desktop_pc;shadow=0;fontFamily=Helvetica;fontSize=12;rounded=1;" parent="1" vertex="1">
          <mxGeometry x="1290" y="879.9999999999999" width="30" height="80" as="geometry" />
        </mxCell>
        <mxCell id="xeHvmdHFXYVBWW7oBt5g-1" value="S7-300&lt;br&gt;10.2.10.50" style="verticalAlign=top;verticalLabelPosition=bottom;labelPosition=center;align=center;html=1;outlineConnect=0;fillColor=#f5f5f5;strokeColor=#666666;gradientDirection=north;strokeWidth=2;shape=mxgraph.networks.ups_enterprise;gradientColor=#b3b3b3;shadow=0;" parent="1" vertex="1">
          <mxGeometry x="330" y="440" width="80" height="80" as="geometry" />
        </mxCell>
        <mxCell id="xeHvmdHFXYVBWW7oBt5g-3" value="S7-1500&lt;br&gt;10.2.10.70" style="verticalAlign=top;verticalLabelPosition=bottom;labelPosition=center;align=center;html=1;outlineConnect=0;fillColor=#f5f5f5;strokeColor=#666666;gradientDirection=north;strokeWidth=2;shape=mxgraph.networks.ups_enterprise;gradientColor=#b3b3b3;shadow=0;" parent="1" vertex="1">
          <mxGeometry x="330" y="650" width="80" height="80" as="geometry" />
        </mxCell>
        <mxCell id="xeHvmdHFXYVBWW7oBt5g-4" value="Shift Supervisor&lt;br&gt;10.2.10.71" style="verticalAlign=top;verticalLabelPosition=bottom;labelPosition=center;align=center;html=1;outlineConnect=0;fillColor=#f5f5f5;strokeColor=#666666;gradientColor=#b3b3b3;gradientDirection=north;strokeWidth=2;shape=mxgraph.networks.pc;shadow=0;fontFamily=Helvetica;fontSize=12;rounded=1;" parent="1" vertex="1">
          <mxGeometry x="320" y="835" width="100" height="70" as="geometry" />
        </mxCell>
        <mxCell id="OnO1zkoM-BgEx6M0p6bU-1" value="" style="sketch=0;points=[[0.015,0.015,0],[0.985,0.015,0],[0.985,0.985,0],[0.015,0.985,0],[0.25,0,0],[0.5,0,0],[0.75,0,0],[1,0.25,0],[1,0.5,0],[1,0.75,0],[0.75,1,0],[0.5,1,0],[0.25,1,0],[0,0.75,0],[0,0.5,0],[0,0.25,0]];verticalLabelPosition=bottom;html=1;verticalAlign=top;aspect=fixed;align=center;pointerEvents=1;shape=mxgraph.cisco19.rect;prIcon=firewall;fillColor=#FAFAFA;strokeColor=#005073;" vertex="1" parent="1">
          <mxGeometry x="480" y="90" width="64" height="50" as="geometry" />
        </mxCell>
        <mxCell id="OnO1zkoM-BgEx6M0p6bU-2" value="DMZ (100)" style="swimlane;whiteSpace=wrap;html=1;fillColor=#d0cee2;strokeColor=#56517e;" vertex="1" parent="1">
          <mxGeometry x="650" y="20" width="670" height="200" as="geometry" />
        </mxCell>
        <mxCell id="xeHvmdHFXYVBWW7oBt5g-2" value="mbNET.mini MDH 862&lt;br&gt;10.2.100.54" style="verticalAlign=top;verticalLabelPosition=bottom;labelPosition=center;align=center;html=1;outlineConnect=0;fillColor=#dae8fc;strokeColor=#6c8ebf;gradientColor=#7ea6e0;gradientDirection=north;strokeWidth=2;shape=mxgraph.networks.nas_filer;shadow=0;fontFamily=Helvetica;fontSize=12;rotation=0;rounded=1;" parent="OnO1zkoM-BgEx6M0p6bU-2" vertex="1">
          <mxGeometry x="127" y="77.5" width="100" height="35" as="geometry" />
        </mxCell>
        <mxCell id="OnO1zkoM-BgEx6M0p6bU-5" style="edgeStyle=none;curved=1;rounded=0;orthogonalLoop=1;jettySize=auto;html=1;exitX=0;exitY=0.5;exitDx=0;exitDy=0;exitPerimeter=0;entryX=1;entryY=0.5;entryDx=0;entryDy=0;entryPerimeter=0;fontSize=12;startSize=8;endSize=8;endArrow=none;endFill=0;" edge="1" parent="1" source="xeHvmdHFXYVBWW7oBt5g-2" target="OnO1zkoM-BgEx6M0p6bU-1">
          <mxGeometry relative="1" as="geometry" />
        </mxCell>
        <mxCell id="OnO1zkoM-BgEx6M0p6bU-7" value="VLAN 1 (1)" style="swimlane;whiteSpace=wrap;html=1;fillColor=#ffcd28;gradientColor=#ffa500;strokeColor=#d79b00;" vertex="1" parent="1">
          <mxGeometry x="690" y="390" width="680" height="160" as="geometry" />
        </mxCell>
        <mxCell id="OnO1zkoM-BgEx6M0p6bU-16" style="edgeStyle=none;curved=0;rounded=0;orthogonalLoop=1;jettySize=auto;html=1;exitX=0;exitY=0.5;exitDx=0;exitDy=0;fontSize=12;startSize=8;endSize=8;endArrow=none;endFill=0;" edge="1" parent="1" source="OnO1zkoM-BgEx6M0p6bU-10">
          <mxGeometry relative="1" as="geometry">
            <mxPoint x="520.0000000000002" y="140" as="targetPoint" />
            <Array as="points">
              <mxPoint x="520" y="700" />
            </Array>
          </mxGeometry>
        </mxCell>
        <mxCell id="OnO1zkoM-BgEx6M0p6bU-10" value="VLAN 2 (2)" style="swimlane;whiteSpace=wrap;html=1;fillColor=#ffcd28;gradientColor=#ffa500;strokeColor=#d79b00;" vertex="1" parent="1">
          <mxGeometry x="690" y="620" width="680" height="160" as="geometry" />
        </mxCell>
        <mxCell id="OnO1zkoM-BgEx6M0p6bU-17" style="edgeStyle=none;curved=0;rounded=0;orthogonalLoop=1;jettySize=auto;html=1;exitX=0;exitY=0.5;exitDx=0;exitDy=0;fontSize=12;startSize=8;endSize=8;endArrow=none;endFill=0;" edge="1" parent="1" source="OnO1zkoM-BgEx6M0p6bU-11">
          <mxGeometry relative="1" as="geometry">
            <mxPoint x="510.0000000000002" y="140" as="targetPoint" />
            <Array as="points">
              <mxPoint x="510" y="925" />
            </Array>
          </mxGeometry>
        </mxCell>
        <mxCell id="OnO1zkoM-BgEx6M0p6bU-11" value="VLAN 3 (3)" style="swimlane;whiteSpace=wrap;html=1;fillColor=#ffcd28;gradientColor=#ffa500;strokeColor=#d79b00;" vertex="1" parent="1">
          <mxGeometry x="690" y="840" width="680" height="170" as="geometry" />
        </mxCell>
        <mxCell id="OnO1zkoM-BgEx6M0p6bU-13" value="SHARED (10)" style="swimlane;whiteSpace=wrap;html=1;fillColor=#d0cee2;strokeColor=#56517e;" vertex="1" parent="1">
          <mxGeometry x="270" y="380" width="200" height="620" as="geometry" />
        </mxCell>
        <mxCell id="OnO1zkoM-BgEx6M0p6bU-14" style="edgeStyle=none;curved=0;rounded=0;orthogonalLoop=1;jettySize=auto;html=1;exitX=1;exitY=0.25;exitDx=0;exitDy=0;entryX=0.25;entryY=1;entryDx=0;entryDy=0;entryPerimeter=0;fontSize=12;startSize=8;endSize=8;endArrow=none;endFill=0;" edge="1" parent="1" source="OnO1zkoM-BgEx6M0p6bU-13" target="OnO1zkoM-BgEx6M0p6bU-1">
          <mxGeometry relative="1" as="geometry">
            <Array as="points">
              <mxPoint x="500" y="535" />
            </Array>
          </mxGeometry>
        </mxCell>
        <mxCell id="OnO1zkoM-BgEx6M0p6bU-15" style="edgeStyle=none;curved=0;rounded=0;orthogonalLoop=1;jettySize=auto;html=1;exitX=0;exitY=0.5;exitDx=0;exitDy=0;fontSize=12;startSize=8;endSize=8;entryX=0.75;entryY=1;entryDx=0;entryDy=0;entryPerimeter=0;endArrow=none;endFill=0;" edge="1" parent="1" source="OnO1zkoM-BgEx6M0p6bU-7" target="OnO1zkoM-BgEx6M0p6bU-1">
          <mxGeometry relative="1" as="geometry">
            <mxPoint x="530" y="150" as="targetPoint" />
            <Array as="points">
              <mxPoint x="530" y="470" />
            </Array>
          </mxGeometry>
        </mxCell>
      </root>
    </mxGraphModel>
  </diagram>
</mxfile>
